# xmcd
#
# Track frame offsets:
#       150
#       14968
#       29446
#       45373
#       59447
#       73165
#       87755
#       100300
#       115226
#       130485
#       144990
#       156391
#
# Disc length: 2316 seconds
#
# Revision: 0
# Processed by: cddbd v1.5.2PL0 Copyright (c) Steve Scherf et al.
# Submitted via: WaveLab 4.01
#
DISCID=ad090a0c
DTITLE=Rafa e Rafael - Eu nãoresito
DYEAR=1900
DGENRE=
TTITLE0=SEU VENENO
TTITLE1=CARRO AZUL
TTITLE2=ANJO DOCE
TTITLE3=BONITONA
TTITLE4=ME DIZ
TTITLE5=VIRO O BICHO
TTITLE6=EU NAO RESISTO
TTITLE7=KOMBI
TTITLE8=AMOR QUE SEDUZ
TTITLE9=EU SEI QUE VOCÊ ME QUER
TTITLE10=AI AI AI
TTITLE11=BAILAO DE GOIAS
EXTD=
EXTT0=
EXTT1=
EXTT2=
EXTT3=
EXTT4=
EXTT5=
EXTT6=
EXTT7=
EXTT8=
EXTT9=
EXTT10=
EXTT11=
PLAYORDER=
